<svg xmlns="http://www.w3.org/2000/svg" xmlns:xlink="http://www.w3.org/1999/xlink" width="130" height="90.645" viewBox="0 0 130 90.645">
  <defs>
    <linearGradient id="linear-gradient" x1="0.5" y1="1" x2="0.5" gradientUnits="objectBoundingBox">
      <stop offset="0" stop-color="gray" stop-opacity="0.251"/>
      <stop offset="0.54" stop-color="gray" stop-opacity="0.122"/>
      <stop offset="1" stop-color="gray" stop-opacity="0.102"/>
    </linearGradient>
  </defs>
  <g id="Group_135" data-name="Group 135" transform="translate(-397 -786)">
    <path id="Path_52" data-name="Path 52" d="M111.676,70.966c-8.331-.289-16.266-2.979-23.844-5.922s-15.083-6.2-23.216-7.762c-5.23-1-11.212-1.145-15.426,1.659-4.056,2.7-5.366,7.356-6.071,11.679-.53,3.253-.841,6.674.611,9.72,1.008,2.113,2.8,3.89,4.033,5.914,4.308,7.045,1.267,15.731-3.406,22.611-2.189,3.226-4.731,6.3-6.42,9.739s-2.468,7.37-.983,10.88c1.466,3.473,4.954,6.081,8.741,7.916,7.678,3.72,16.733,4.787,25.562,5.391,19.545,1.337,39.195.758,58.792.179a172.541,172.541,0,0,0,21.671-1.554c3.962-.622,8.052-1.613,10.929-4a9.153,9.153,0,0,0,2.11-11.957c-4.1-6.371-15.451-7.95-18.319-14.791-1.58-3.763.043-7.956,2.338-11.445,4.922-7.489,13.173-14.056,13.607-22.616.3-5.876-3.667-11.766-9.8-14.547-6.429-2.915-15.342-2.549-20.085,2.278C127.615,69.309,119.032,71.221,111.676,70.966Z" transform="translate(360.871 729.375)" fill="#22bfbf" opacity="0.1"/>
    <path id="Path_91" data-name="Path 91" d="M267.81,317.87v50.892a1.776,1.776,0,0,0,1.777,1.776h73.031a1.776,1.776,0,0,0,1.777-1.776V317.87Z" transform="translate(155.916 498.229)" fill="#fff"/>
    <rect id="Rectangle_80" data-name="Rectangle 80" width="18.308" height="10.746" rx="5.373" transform="translate(429.787 820.655)" opacity="0.1"/>
    <rect id="Rectangle_81" data-name="Rectangle 81" width="18.308" height="10.746" rx="5.373" transform="translate(452.865 820.655)" opacity="0.1"/>
    <rect id="Rectangle_82" data-name="Rectangle 82" width="17.793" height="10.443" rx="5.222" transform="translate(430.044 820.806)" fill="#22bfbf" opacity="0.27"/>
    <rect id="Rectangle_83" data-name="Rectangle 83" width="17.793" height="10.443" rx="5.222" transform="translate(493.994 831.249) rotate(180)" fill="#444053" opacity="0.1"/>
    <rect id="Rectangle_84" data-name="Rectangle 84" width="17.793" height="10.443" rx="5.222" transform="translate(470.915 831.249) rotate(180)" fill="#22bfbf" opacity="0.27"/>
    <rect id="Rectangle_85" data-name="Rectangle 85" width="17.793" height="10.443" rx="5.222" transform="translate(430.044 835.891)" fill="#444053" opacity="0.1"/>
    <rect id="Rectangle_86" data-name="Rectangle 86" width="17.793" height="10.443" rx="5.222" transform="translate(493.994 846.334) rotate(180)" fill="#444053" opacity="0.1"/>
    <rect id="Rectangle_87" data-name="Rectangle 87" width="17.793" height="10.443" rx="5.222" transform="translate(470.915 846.334) rotate(180)" fill="#444053" opacity="0.1"/>
    <rect id="Rectangle_88" data-name="Rectangle 88" width="17.793" height="10.443" rx="5.222" transform="translate(430.044 850.976)" fill="#444053" opacity="0.1"/>
    <rect id="Rectangle_89" data-name="Rectangle 89" width="17.793" height="10.443" rx="5.222" transform="translate(493.994 861.42) rotate(180)" fill="#444053" opacity="0.1"/>
    <rect id="Rectangle_90" data-name="Rectangle 90" width="17.793" height="10.443" rx="5.222" transform="translate(470.915 861.42) rotate(180)" fill="#444053" opacity="0.1"/>
    <path id="Path_92" data-name="Path 92" d="M267.81,226.208v9.246h76.584v-9.246a1.776,1.776,0,0,0-1.777-1.778H269.587A1.777,1.777,0,0,0,267.81,226.208Zm18.953,2.735a1.418,1.418,0,1,1,1.418-1.418A1.418,1.418,0,0,1,286.763,228.943Zm38.679,0a1.419,1.419,0,1,1,1-.415,1.418,1.418,0,0,1-1,.415Z" transform="translate(155.916 580.904)" fill="#2b2b2b"/>
    <path id="Path_93" data-name="Path 93" d="M419.427,236.74a1.676,1.676,0,1,0,1.675,1.676A1.677,1.677,0,0,0,419.427,236.74Zm0,3.095a1.418,1.418,0,1,1,1.418-1.418A1.418,1.418,0,0,1,419.427,239.835Z" transform="translate(23.252 570.012)" opacity="0.1"/>
    <path id="Path_94" data-name="Path 94" d="M755.127,236.74a1.676,1.676,0,1,0,1.676,1.676A1.676,1.676,0,0,0,755.127,236.74Zm0,3.095a1.418,1.418,0,1,1,1.418-1.418A1.418,1.418,0,0,1,755.127,239.835Z" transform="translate(-273.771 570.012)" opacity="0.1"/>
    <circle id="Ellipse_17" data-name="Ellipse 17" cx="1.759" cy="1.759" r="1.759" transform="translate(514.269 832.625)" fill="#22bfbf" opacity="0.1"/>
    <circle id="Ellipse_18" data-name="Ellipse 18" cx="2.949" cy="2.949" r="2.949" transform="translate(519.373 823.588)" fill="#22bfbf" opacity="0.1"/>
    <circle id="Ellipse_19" data-name="Ellipse 19" cx="2.949" cy="2.949" r="2.949" transform="translate(515.469 837.9)" fill="#22bfbf" opacity="0.1"/>
    <circle id="Ellipse_20" data-name="Ellipse 20" cx="4.177" cy="4.177" r="4.177" transform="translate(397 821.638)" fill="#22bfbf" opacity="0.1"/>
    <path id="Path_95" data-name="Path 95" d="M803.03,444.767a3.706,3.706,0,0,0-.855-.48.179.179,0,0,0-.075-.02,13.138,13.138,0,0,1-1.763-1.518c.115-.092.221-.182.334-.271a3.794,3.794,0,0,1-1.448-1.765,17.409,17.409,0,0,0-3.841-4.786c-.038-.147-.261-.115-.379-.21a.3.3,0,0,1-.084-.294c.018-.106.067-.2.093-.308a2.08,2.08,0,0,0-.02-.749.915.915,0,0,1,.15-.715c.053-.061.121-.108.173-.171a.65.65,0,0,0,.115-.517,1.832,1.832,0,0,0-.115-.524q.847-2.3,1.693-4.617a10.891,10.891,0,0,0,.834-3.323,3.969,3.969,0,0,0-.763-2.583c.1-.024.2-.05.3-.078a5.229,5.229,0,0,1-.748-3.13q-.014-.823-.056-1.646a6.2,6.2,0,0,0,.583.223l.185.057a6.353,6.353,0,0,0,.914.2c.136.02.274.035.411.044h0q-.3-.744-.594-1.491a2.037,2.037,0,0,1-.184-.7h0v-.046a.391.391,0,0,1,.006-.083.92.92,0,0,1,.045-.194.953.953,0,0,1,.036-.091,1.578,1.578,0,0,1,.148-.259c.041-.063.087-.124.133-.187a2.541,2.541,0,0,0,.414-.669,1.264,1.264,0,0,0,.063-.381,1.893,1.893,0,0,0-.034-.392c-.016-.085-.037-.172-.06-.255h0c-.015-.052-.031-.1-.047-.154l-.014-.042c-.012-.039-.025-.077-.039-.115l-.014-.039c-.015-.042-.03-.082-.046-.123l-.009-.024c-.22-.566-.513-1.1-.691-1.687a4.39,4.39,0,0,1-.115-.471c-.008-.04-.014-.082-.021-.122s-.01-.069-.015-.1-.01-.081-.015-.121l-.011-.115c0-.037-.006-.074-.008-.115,0-.07-.007-.141-.008-.211v-.32c0-.053.008-.106.012-.158a.224.224,0,0,1,.008-.075c.008-.077.018-.154.031-.23h0c.011-.068.024-.137.038-.206a2.774,2.774,0,0,0,.064-.576.572.572,0,0,0-.008-.115c-.008-.04-.009-.062-.015-.092a.211.211,0,0,1,0-.028.323.323,0,0,0-.015-.062.129.129,0,0,0-.01-.029c0-.009-.013-.04-.019-.06l-.009-.027c0-.009-.016-.041-.025-.061l-.008-.021c-.012-.025-.024-.05-.037-.074h0a1.672,1.672,0,0,0-.154-.24h0c-.379-.5-1.009-.877-1.356-1.425a3.173,3.173,0,0,1-.388-1.152c-.017-.092-.032-.184-.048-.275s-.03-.181-.046-.271c-.01-.055-.021-.115-.032-.166l-.007-.036c-.009-.044-.018-.089-.029-.132l-.007-.031c-.01-.046-.021-.092-.033-.138l-.007-.024c-.012-.048-.024-.1-.037-.145a.138.138,0,0,1,0-.017c-.014-.051-.029-.1-.043-.152v-.01c-.016-.053-.032-.1-.05-.157h0c-.017-.053-.036-.107-.055-.16h0c-.021-.054-.04-.108-.062-.161h0a4.271,4.271,0,0,0-.583-1.037,2.752,2.752,0,0,0-2.189-1.131,4.347,4.347,0,0,0-1.317.334l-1.109.409.31-.143a2.654,2.654,0,0,0-.943.2.917.917,0,0,0-.547.75c-.006.19.069.379.045.568-.04.312-.327.524-.476.8a1.032,1.032,0,0,0-.115.542v.074a.085.085,0,0,0,0,.018v.037c-.461-.2-.922-.409-1.383-.633a4.885,4.885,0,0,1-2.007-1.524c-.152-.231-.27-.479-.421-.707a5.628,5.628,0,0,0-.576-.691l-1.413-1.53c-.109.2.031.445.14.648a2.759,2.759,0,0,1,.261.675.317.317,0,0,1-.007.236.462.462,0,0,1-.194.137.691.691,0,0,0-.291.792.875.875,0,0,0,.653.569,1.186,1.186,0,0,1,.292.072c.17.084.251.28.373.426a1.675,1.675,0,0,0,.914.455c.523.6,1.067,1.182,1.59,1.786a11.439,11.439,0,0,0,2.634,2.461c.107.065.217.125.327.18a.186.186,0,0,1-.006.055.626.626,0,0,0,.05.4.634.634,0,0,0,.452.22l.781.139a2.653,2.653,0,0,1-.038.3c-.01.061-.023.121-.034.182h0l-.014.078v.012a.228.228,0,0,1-.008.063c-.008.022,0,.015,0,.022v.153a1.467,1.467,0,0,0,.434.794l.11.132a1.837,1.837,0,0,0-.356.747,2.535,2.535,0,0,0-.051.52.9.9,0,0,0-.23.36,1.638,1.638,0,0,0-.06.582v.23a1.937,1.937,0,0,0,.134.807c.01.021.022.039.032.059a11.2,11.2,0,0,1-.667.922,2,2,0,0,0,.183,2.291c.158.182.361.357.379.6a2.231,2.231,0,0,1-.032.327,2.445,2.445,0,0,0,.166.759.784.784,0,0,1-.064.629.923.923,0,0,0-.158.6,4.016,4.016,0,0,1-.1.983c-.01.142,0,.286-.013.428a2.424,2.424,0,0,1-.084.4.165.165,0,0,1-.012.044c-.285.126-.567.256-.839.407a.734.734,0,0,0-.345.318.814.814,0,0,0-.019.438l.246,1.708-.042-.019q.029.42.06.842a1.14,1.14,0,0,0,.162.609,1.561,1.561,0,0,1,.174.222c.1.2-.019.424-.1.624s-.115.485.073.593a1.543,1.543,0,0,0,.315.168,6.564,6.564,0,0,0,.2,2.932q.245,1.106.492,2.21a5.345,5.345,0,0,1,.108.949v.138a5.322,5.322,0,0,0,.231,1.293,15.162,15.162,0,0,1,.091,2.835,8.406,8.406,0,0,0,.27,1.335,41.124,41.124,0,0,1,1.244,6.641,1.669,1.669,0,0,0,.8.556c-.023.279.008.6,0,.76a1.324,1.324,0,0,1-.062.4.953.953,0,0,1-.6.513c-.08.028-.162.05-.245.069l.092-.078a2.057,2.057,0,0,0-1.533.27.607.607,0,0,0-.3.357.575.575,0,0,0,.106.414,1.885,1.885,0,0,0,1.066.757,5.594,5.594,0,0,0,1.313.183l.813.047a.223.223,0,0,0,.053.289.57.57,0,0,0,.3.108,3.807,3.807,0,0,0,1,.015.392.392,0,0,0,.23-.083.148.148,0,0,0,0-.22.244.244,0,0,0,.221-.161.655.655,0,0,0,.03-.292,3.133,3.133,0,0,0-.252-1.267.322.322,0,0,0-.356-.157,13.772,13.772,0,0,1-.23-2.044,4.961,4.961,0,0,0,.592-.267,4.575,4.575,0,0,1-.4-3.136,9.465,9.465,0,0,0,.151-1.015,3.365,3.365,0,0,0-.441-2.012,7.191,7.191,0,0,1,1.8,1.627,20.4,20.4,0,0,0,2.257,3.157q.193-.188.39-.373.309.523.584,1.068a4.06,4.06,0,0,1,.339.842,3.9,3.9,0,0,1,.031,1.358q-.04.36-.1.716a1.9,1.9,0,0,1-.07.3.21.21,0,0,0-.022-.09c-.061-.107-.23-.059-.323.015a1.423,1.423,0,0,0-.4.461.5.5,0,0,0-.071.294.434.434,0,0,0,.23.288,2.4,2.4,0,0,0,1.782-.3c.23-.166.356-.439.585-.6a3.35,3.35,0,0,0,.354-.223c.213-.195.23-.523.386-.77.258-.425.835-.535,1.061-.985A1.257,1.257,0,0,0,803.03,444.767Z" transform="translate(-299.381 426.535)" fill="url(#linear-gradient)"/>
    <path id="Path_96" data-name="Path 96" d="M860.865,804.779a1.282,1.282,0,0,1-.063.392.945.945,0,0,1-.6.506c-.256.089-.528.115-.788.193a.7.7,0,0,0-.308.159.559.559,0,0,0,.178.817,1.529,1.529,0,0,0,.933.144,12.218,12.218,0,0,0,2.018-.287c.24-.056.52-.167.558-.41a.668.668,0,0,0-.019-.23,13.582,13.582,0,0,1-.259-2.5,5.225,5.225,0,0,0-1.461-.01C860.774,803.731,860.879,804.5,860.865,804.779Z" transform="translate(-367.149 68.551)" fill="#a1616a"/>
    <path id="Path_97" data-name="Path 97" d="M925.036,780.1q.332.549.623,1.121a3.961,3.961,0,0,1,.339.831,3.825,3.825,0,0,1,.031,1.34q-.041.354-.1.706a.891.891,0,0,1-.3.624.68.68,0,0,0,.587.052,1.684,1.684,0,0,0,.517-.317,4.567,4.567,0,0,0,1.765-3.278.519.519,0,0,0-.055-.29.571.571,0,0,0-.172-.154,13.277,13.277,0,0,1-2.043-1.715.25.25,0,0,0-.15-.1.261.261,0,0,0-.134.038c-.379.19-1.012.461-1.17.893A.6.6,0,0,1,925.036,780.1Z" transform="translate(-425.361 90.299)" fill="#a1616a"/>
    <path id="Path_98" data-name="Path 98" d="M856.331,822.412a10.254,10.254,0,0,1-2.626.589.358.358,0,0,1-.315-.057.239.239,0,0,1-.021-.269.7.7,0,0,1,.192-.212l.6-.5a2.075,2.075,0,0,0-1.514.261.6.6,0,0,0-.3.346.56.56,0,0,0,.106.409,1.882,1.882,0,0,0,1.065.747,5.726,5.726,0,0,0,1.312.181l.806.046a.218.218,0,0,0,.054.286.572.572,0,0,0,.3.109,3.82,3.82,0,0,0,1,.014.384.384,0,0,0,.231-.082.145.145,0,0,0,0-.217.244.244,0,0,0,.221-.16.673.673,0,0,0,.03-.287,3.023,3.023,0,0,0-.252-1.248C857.02,822.041,856.61,822.3,856.331,822.412Z" transform="translate(-361.265 52.255)" fill="#2b2b2b"/>
    <path id="Path_99" data-name="Path 99" d="M931.01,793.822a3.691,3.691,0,0,0-.855-.474.1.1,0,0,0-.086-.018.1.1,0,0,0-.068.057,8.775,8.775,0,0,0-1.259,2.428,4.224,4.224,0,0,1-.629,1.424c-.044.053-.115.107-.175.076-.086-.044-.033-.183-.082-.267-.06-.106-.224-.057-.322.015a1.383,1.383,0,0,0-.4.461.461.461,0,0,0-.072.289.426.426,0,0,0,.225.283,1.661,1.661,0,0,0,1.422-.115,1.611,1.611,0,0,0,.358-.178c.231-.162.356-.433.586-.591a3.4,3.4,0,0,0,.353-.221c.212-.193.231-.516.385-.76.258-.418.836-.527,1.061-.971A1.252,1.252,0,0,0,931.01,793.822Z" transform="translate(-427.382 77.551)" fill="#2b2b2b"/>
    <path id="Path_100" data-name="Path 100" d="M847.246,593.346a3.594,3.594,0,0,1,1.245,3.02,10.648,10.648,0,0,1-.832,3.278q-.847,2.278-1.691,4.555a1.878,1.878,0,0,1,.115.518.637.637,0,0,1-.115.509c-.053.061-.115.109-.173.168a.9.9,0,0,0-.15.706,2.037,2.037,0,0,1,.02.738c-.026.1-.075.2-.093.3a.3.3,0,0,0,.084.29c.115.092.346.062.379.207a17.232,17.232,0,0,1,3.837,4.724,3.712,3.712,0,0,0,1.447,1.741,25.262,25.262,0,0,0-1.951,1.715,20.407,20.407,0,0,1-2.253-3.111,7.145,7.145,0,0,0-1.8-1.6,3.281,3.281,0,0,1,.441,1.984,9.16,9.16,0,0,1-.151,1,4.433,4.433,0,0,0,.4,3.094,3.387,3.387,0,0,1-1.971.453,1.678,1.678,0,0,1-1.074-.613,40.515,40.515,0,0,0-1.243-6.552,8.038,8.038,0,0,1-.268-1.326,14.643,14.643,0,0,0-.092-2.8,5.206,5.206,0,0,1-.23-1.274v-.137a5.211,5.211,0,0,0-.108-.935l-.491-2.18a6.391,6.391,0,0,1-.2-2.894,1.544,1.544,0,0,1-.313-.165c-.188-.107-.158-.387-.073-.585s.2-.423.1-.617a1.5,1.5,0,0,0-.174-.22,1.11,1.11,0,0,1-.161-.6l-.06-.832a1.63,1.63,0,0,1,.82.718,2.742,2.742,0,0,1,.1-2.472,1.126,1.126,0,0,1,1.058-.837C843.49,593,845.746,592.219,847.246,593.346Z" transform="translate(-350.048 255.013)" fill="#2b2b2b"/>
    <path id="Path_101" data-name="Path 101" d="M888.933,638.93s-.908.606-.908,1.06-.23,4.54-.23,4.54v2.88a7.751,7.751,0,0,1,0,1.892,12.168,12.168,0,0,0,0,2.346c0,.227.23-2.346.23-2.346v-2.728l.23-6.205Z" transform="translate(-392.578 214.16)" opacity="0.1"/>
    <path id="Path_102" data-name="Path 102" d="M790.71,410.887l-.529-.206c-1.081-.433-2.163-.868-3.209-1.376a4.905,4.905,0,0,1-2-1.5c-.152-.23-.27-.472-.421-.7a5.6,5.6,0,0,0-.576-.683l-1.413-1.509c-.108.2.03.439.141.638a2.764,2.764,0,0,1,.262.667.309.309,0,0,1-.008.231.448.448,0,0,1-.193.136.677.677,0,0,0-.292.78.871.871,0,0,0,.652.562,1.234,1.234,0,0,1,.292.07c.171.084.251.276.373.421a1.678,1.678,0,0,0,.912.449c.523.6,1.066,1.166,1.589,1.762a11.38,11.38,0,0,0,2.632,2.429,3.85,3.85,0,0,0,1.188.477A19.28,19.28,0,0,1,790.71,410.887Z" transform="translate(-299.418 421.218)" fill="#a1616a"/>
    <path id="Path_103" data-name="Path 103" d="M790.71,410.887l-.529-.206c-1.081-.433-2.163-.868-3.209-1.376a4.905,4.905,0,0,1-2-1.5c-.152-.23-.27-.472-.421-.7a5.6,5.6,0,0,0-.576-.683l-1.413-1.509c-.108.2.03.439.141.638a2.764,2.764,0,0,1,.262.667.309.309,0,0,1-.008.231.448.448,0,0,1-.193.136.677.677,0,0,0-.292.78.871.871,0,0,0,.652.562,1.234,1.234,0,0,1,.292.07c.171.084.251.276.373.421a1.678,1.678,0,0,0,.912.449c.523.6,1.066,1.166,1.589,1.762a11.38,11.38,0,0,0,2.632,2.429,3.85,3.85,0,0,0,1.188.477A19.28,19.28,0,0,1,790.71,410.887Z" transform="translate(-299.418 421.218)" opacity="0.15"/>
    <path id="Path_104" data-name="Path 104" d="M841.887,458.63a.635.635,0,0,1-.452-.217.607.607,0,0,1-.05-.4,11.132,11.132,0,0,1,.576-2.546,2.749,2.749,0,0,0,1.242,1,9.22,9.22,0,0,0,1.334.609c-.115-.037-.4,1.735-.556,1.843-.2.14-.684-.05-.907-.087Z" transform="translate(-351.563 376.483)" fill="#22bfbf"/>
    <circle id="Ellipse_21" data-name="Ellipse 21" cx="2.422" cy="2.422" r="2.422" transform="translate(489.129 829.746)" fill="#a1616a"/>
    <path id="Path_105" data-name="Path 105" d="M852.22,461.876s1.589,1.362.908,2.27-1.06,1.514-.152,1.59,3.935-1.514,3.935-1.514-2.8-2.27-2.346-3.632S852.22,461.876,852.22,461.876Z" transform="translate(-361.161 372.298)" fill="#fbbebe"/>
    <path id="Path_106" data-name="Path 106" d="M846.144,480.159a1.879,1.879,0,0,0-1.391,1.4c-.179.816.2,1.728-.157,2.479a9.871,9.871,0,0,1-.691.96,1.959,1.959,0,0,0,.182,2.259c.158.18.361.354.379.591a2.164,2.164,0,0,1-.032.322,2.4,2.4,0,0,0,.166.75.763.763,0,0,1-.063.62.9.9,0,0,0-.157.6,3.987,3.987,0,0,1-.1.97c-.011.141,0,.281-.013.422a2.476,2.476,0,0,1-.083.4l-.2.748a8.311,8.311,0,0,0,3.456.618,16.968,16.968,0,0,0,3.156-.461c.317-.067.634-.134.946-.22a5.111,5.111,0,0,1-.748-3.088,46.033,46.033,0,0,0-.4-5.4,6.943,6.943,0,0,0,.592-1.944,3.309,3.309,0,0,0,.074-.822,4.384,4.384,0,0,0-.557-1.645,2.13,2.13,0,0,0-1.023-1.186.814.814,0,0,0-.787.086c-.4.3-.281.823-.384,1.267a1.7,1.7,0,0,1-1.232,1.152,4.006,4.006,0,0,1-1.295.121.23.23,0,0,1-.163-.378C845.8,480.563,845.985,480.355,846.144,480.159Z" transform="translate(-353.561 356.145)" fill="#22bfbf"/>
    <path id="Path_107" data-name="Path 107" d="M842.814,574.49a15.752,15.752,0,0,1-2.838,1.991c-.607.3-1.252.529-1.843.856a.734.734,0,0,0-.345.314.773.773,0,0,0-.018.432l.263,1.811c.072.49.544.806.922,1.12a.662.662,0,0,1,.024-.439,1.393,1.393,0,0,1,.089-.132,1.244,1.244,0,0,0,.128-.852,4.717,4.717,0,0,1-.1-.873.285.285,0,0,1,.122-.254c1.287-.619,2.673-1.094,3.974-1.681a4.2,4.2,0,0,0,.964-.547,1.485,1.485,0,0,0,.56-.93.182.182,0,0,0-.023-.142.194.194,0,0,0-.1-.058C844.01,574.894,843.395,574.7,842.814,574.49Z" transform="translate(-348.355 271.176)" fill="#a1616a"/>
    <path id="Path_108" data-name="Path 108" d="M851.458,508.483a1.3,1.3,0,0,0-1.063.731,1.621,1.621,0,0,0-.06.576,1.872,1.872,0,0,0,.135.8,2.255,2.255,0,0,0,.27.392c1.065,1.364,1.6,3.077,2.636,4.464.092.122.26.281.208.425a.985.985,0,0,0-.049.115.23.23,0,0,0,.076.2.487.487,0,0,1,.126.183c.02.073-.029.167-.1.161a1.543,1.543,0,0,0,.867.792,3.615,3.615,0,0,0,1.937.476,4.424,4.424,0,0,0,.23-1.585,4.113,4.113,0,0,0-.386-1.125l-.451-.984a14.644,14.644,0,0,0-1.305-2.438,3.673,3.673,0,0,1-.483-.778c-.137-.356-.514-.606-.742-.911a5.636,5.636,0,0,0-1.145-1.255A1.032,1.032,0,0,0,851.458,508.483Z" transform="translate(-359.488 329.583)" opacity="0.1"/>
    <path id="Path_109" data-name="Path 109" d="M851.458,506.513a1.3,1.3,0,0,0-1.063.731,1.628,1.628,0,0,0-.06.576,1.875,1.875,0,0,0,.135.8,2.23,2.23,0,0,0,.27.392c1.064,1.364,1.6,3.077,2.636,4.463.092.122.261.281.208.425a1.02,1.02,0,0,0-.049.115.23.23,0,0,0,.076.2.5.5,0,0,1,.126.183c.019.073-.029.167-.1.161a1.543,1.543,0,0,0,.867.792,3.615,3.615,0,0,0,1.937.476,4.425,4.425,0,0,0,.23-1.585,4.118,4.118,0,0,0-.386-1.125l-.45-.984a14.673,14.673,0,0,0-1.305-2.438,3.652,3.652,0,0,1-.483-.779c-.137-.355-.514-.6-.742-.91a5.633,5.633,0,0,0-1.145-1.255A1.041,1.041,0,0,0,851.458,506.513Z" transform="translate(-359.489 331.326)" fill="#22bfbf"/>
    <path id="Path_110" data-name="Path 110" d="M835.667,418.212a2.666,2.666,0,0,0-.942.2.907.907,0,0,0-.547.74,4.4,4.4,0,0,1,.045.56c-.04.309-.327.517-.475.79a1.416,1.416,0,0,0,.277,1.5c.334.419.787.742,1.13,1.159a3,3,0,0,1,.625,2.41,1.916,1.916,0,0,0-.061.5,1.448,1.448,0,0,0,.433.782,36.2,36.2,0,0,1,2.733,3.636,9.842,9.842,0,0,1,.673,1.152,6.967,6.967,0,0,0,.618,1.218,3.211,3.211,0,0,0,.907.778,6.406,6.406,0,0,0,2.9.937l-.593-1.471a1.687,1.687,0,0,1-.179-.817c.066-.53.6-.878.774-1.383a1.678,1.678,0,0,0-.031-1.014c-.21-.745-.629-1.416-.855-2.157a4.373,4.373,0,0,1-.129-2.006,3.106,3.106,0,0,0,.093-.887c-.109-.9-1.166-1.332-1.655-2.1a4.533,4.533,0,0,1-.483-1.669,5.271,5.271,0,0,0-.954-2.342,2.75,2.75,0,0,0-2.189-1.117,4.431,4.431,0,0,0-1.316.329l-1.111.4" transform="translate(-344.713 409.977)" fill="#2b2b2b"/>
    <g id="Group_128" data-name="Group 128" transform="translate(488.92 829.735)" opacity="0.1">
      <path id="Path_111" data-name="Path 111" d="M893.818,436.556a5.335,5.335,0,0,0,.4,1.522c-.033-.18-.061-.361-.095-.538a6.7,6.7,0,0,0-.371-1.32C893.779,436.332,893.8,436.443,893.818,436.556Z" transform="translate(-886.826 -436.22)"/>
      <path id="Path_112" data-name="Path 112" d="M911.614,474.955a4.4,4.4,0,0,0,.129,2.007,5.154,5.154,0,0,0,.189.518,4.386,4.386,0,0,1-.015-1.541,3.086,3.086,0,0,0,.093-.887,1.382,1.382,0,0,0-.3-.691C911.693,474.561,911.647,474.757,911.614,474.955Z" transform="translate(-902.578 -469.966)"/>
      <path id="Path_113" data-name="Path 113" d="M915.148,519.306a5.554,5.554,0,0,0-.231-.636,1.412,1.412,0,0,1-.044.666c-.174.5-.71.852-.774,1.382a1.677,1.677,0,0,0,.179.817c.039.1.078.2.115.295a.972.972,0,0,1,0-.128c.065-.53.6-.878.774-1.383A1.607,1.607,0,0,0,915.148,519.306Z" transform="translate(-904.825 -509.17)"/>
      <path id="Path_114" data-name="Path 114" d="M856.8,495.119a3.22,3.22,0,0,1-.907-.779,6.971,6.971,0,0,1-.619-1.218,9.725,9.725,0,0,0-.673-1.152,36.218,36.218,0,0,0-2.732-3.637c-.036-.04-.07-.082-.1-.123a1.19,1.19,0,0,0-.027.325,1.449,1.449,0,0,0,.433.782,36.186,36.186,0,0,1,2.733,3.636,9.774,9.774,0,0,1,.673,1.152,7.005,7.005,0,0,0,.617,1.218,3.211,3.211,0,0,0,.907.778,6.4,6.4,0,0,0,2.9.937l-.4-.991A6.4,6.4,0,0,1,856.8,495.119Z" transform="translate(-849.651 -482.22)"/>
      <path id="Path_115" data-name="Path 115" d="M834.876,447.4c-.346-.417-.8-.734-1.13-1.158-.03-.039-.059-.079-.087-.122a1.677,1.677,0,0,0,.391,1.105c.334.425.787.742,1.13,1.159a2.861,2.861,0,0,1,.346.525A3,3,0,0,0,834.876,447.4Z" transform="translate(-833.658 -444.979)"/>
    </g>
    <path id="Path_116" data-name="Path 116" d="M373.016,347.121l-.835-.84a.443.443,0,0,0-.63,0l-5.246,5.2-2.219-2.235a.442.442,0,0,0-.626,0l-.845.835a.448.448,0,0,0,0,.63l3.37,3.4a.447.447,0,0,0,.629,0l6.4-6.353a.444.444,0,0,0,0-.63Z" transform="translate(72.148 473.208)" fill="#22bfbf"/>
    <path id="Path_117" data-name="Path 117" d="M574.016,347.121l-.835-.84a.444.444,0,0,0-.63,0l-5.246,5.2-2.219-2.235a.443.443,0,0,0-.626,0l-.845.835a.449.449,0,0,0,0,.63l3.37,3.4a.447.447,0,0,0,.629,0l6.4-6.353a.444.444,0,0,0,0-.63Z" transform="translate(-105.694 473.208)" fill="#22bfbf"/>
  </g>
</svg>
