<svg xmlns="http://www.w3.org/2000/svg" xmlns:xlink="http://www.w3.org/1999/xlink" width="111.671" height="84.722" viewBox="0 0 111.671 84.722">
  <defs>
    <linearGradient id="linear-gradient" x1="0.5" y1="1" x2="0.5" gradientUnits="objectBoundingBox">
      <stop offset="0" stop-color="gray" stop-opacity="0.251"/>
      <stop offset="0.54" stop-color="gray" stop-opacity="0.122"/>
      <stop offset="1" stop-color="gray" stop-opacity="0.102"/>
    </linearGradient>
  </defs>
  <g id="Group_145" data-name="Group 145" transform="translate(-857.329 -825)">
    <path id="Path_118" data-name="Path 118" d="M67.691,120.114a4.955,4.955,0,0,0-3.377,3.421c-.442,1.947.576,3.915.721,5.911.475,6.553-8.152,11.176-6.922,17.616.489,2.556,2.465,4.44,4.413,5.99,3.118,2.484,6.578,4.677,10.4,5.3,5.814.941,11.89-1.826,17.543-.077,4.559,1.41,8.047,5.545,12.574,7.071,3.447,1.162,7.159.7,10.743.234,1.927-.252,3.953-.545,5.511-1.8,2.9-2.33,3.077-6.931,5.018-10.229,2.995-5.09,9.561-6.084,15.067-5.1s10.85,3.427,16.428,3.221a7.038,7.038,0,0,0,3.453-.85,9.06,9.06,0,0,0,2.874-3.46,59.352,59.352,0,0,0,7.514-27.822,10.747,10.747,0,0,0-.757-4.945,8.437,8.437,0,0,0-4.636-3.772c-4.438-1.815-9.341-2.109-13.691-4.169-4.2-1.985-7.6-5.468-11.248-8.447A57.874,57.874,0,0,0,114.65,86.339a14.51,14.51,0,0,0-6.361-.245,14.859,14.859,0,0,0-6.335,3.942c-4.954,4.636-8.923,10.351-13.487,15.43A78.816,78.816,0,0,1,78.218,115a37.435,37.435,0,0,1-5.367,3.85C71.13,119.743,69.511,119.52,67.691,120.114Z" transform="translate(799.336 743.646)" fill="#22bfbf" opacity="0.1"/>
    <path id="Path_119" data-name="Path 119" d="M273.734,71.2c-1.928-.4-5.578-1.159-9.709-2-6.116-1.24-7.712,3.454-7.712,3.454,0,2.391-7.975,12.308-7.975,12.308l-2.378-5.328a2.508,2.508,0,0,0,1.094-.074c1.362-.407,2.035-1.943,2.253-3.346A11,11,0,0,0,248.45,70c-.406-.889-.932-1.725-1.258-2.645-1.375-3.861,1.007-8.331-.434-12.177-.6-1.587-1.782-2.875-2.6-4.357-1.84-3.335-1.762-7.506-3.768-10.745a9.726,9.726,0,0,0-9.146-4.435c-2.1.237-3.593.985-5.546.088-1.648-.755-3.627-1.6-5.325-.41-1.448,1.015-1.694,3.014-2.484,4.594-1.388,2.776-4.682,4.587-5.069,7.666a13.662,13.662,0,0,1-.222,2.279c-.633,2.071-3.388,2.683-4.517,4.531a3.563,3.563,0,0,0,2.067,5.065c.876.223,1.819.088,2.695.323.821.219,1.618.987,1.476,1.789l-1.821.331-5.24.582-.811.051v.039l-.044.005.043.035v.287c-1.475.578-3.865,2.119-4.768,6.163a6.121,6.121,0,0,1-1.221,2.52c-1.343,1.656-3.573,4.891-3.449,8,.175,4.427.175,6.2,6.028,4.959a20.385,20.385,0,0,0,4.665-1.738,17.9,17.9,0,0,0,.831,5.014c1.6,4.339-1.773,19.658-1.773,19.658h32.534s-2.748-9.032-5.407-13.636c-1.883-3.262-1.188-5.235-.621-6.108A8.2,8.2,0,0,0,234.35,85.3c.1-.378.19-.806.271-1.281a6.837,6.837,0,0,0,1.961,1.193,3.538,3.538,0,0,0,2.108.122c1.387,1.695,2.935,3.554,4.592,5.485,6.383,7.438,8.156,2.833,8.156,2.833s6.471-12.308,7.362-16.027,2.837-3.542,2.837-3.542A17.439,17.439,0,0,0,273.9,72.293a.585.585,0,0,0-.163-1.09Zm-65.827,2.225a8.417,8.417,0,0,0,1.139-1.665h.017a12.642,12.642,0,0,1-.623,1.812c-.5.1-.8.145-.8.145Z" transform="translate(689.18 790.279)" fill="url(#linear-gradient)"/>
    <path id="Path_120" data-name="Path 120" d="M330,44.353c-1.431,1-1.675,2.98-2.454,4.547-1.372,2.747-4.628,4.541-5.011,7.587a13.538,13.538,0,0,1-.219,2.254c-.625,2.05-3.35,2.655-4.47,4.484a3.527,3.527,0,0,0,2.044,5.013c.868.221,1.8.088,2.664.32s1.7,1.081,1.418,1.928c-.213.631-.964.99-1.1,1.642a1.925,1.925,0,0,0,.633,1.532,6.351,6.351,0,0,0,1.6,1.457c1.728,1,3.884.4,5.877.332a10.619,10.619,0,0,1,6.7,2.13,5.14,5.14,0,0,1,1.412,1.5c1.114,1.961.06,4.423.3,6.666.268,2.549,2.172,4.594,4.094,6.288a8.234,8.234,0,0,0,2.542,1.693,3.115,3.115,0,0,0,2.927-.294,3.606,3.606,0,0,0,1.153-2.892c.005-1.075-.221-2.145-.166-3.219.026-.526.218-1.151.731-1.254a1.194,1.194,0,0,1,.751.17c1.635.822,3.2,2.432,4.957,1.91,1.347-.4,2.016-1.923,2.228-3.312a10.892,10.892,0,0,0-.847-6.156c-.4-.876-.921-1.706-1.244-2.618-1.355-3.829,1-8.254-.425-12.058-.588-1.57-1.762-2.845-2.572-4.313-1.823-3.3-1.741-7.429-3.726-10.635a9.611,9.611,0,0,0-9.042-4.39c-2.072.234-3.552.975-5.483.088C333.639,44.012,331.683,43.172,330,44.353Z" transform="translate(579.318 782.028)" fill="#2b2b2b"/>
    <path id="Path_121" data-name="Path 121" d="M595.779,366.05s5.7-1.753,7.975,8.413l5.784,12.97s7.887-9.815,7.887-12.182c0,0,1.578-4.645,7.625-3.418,4.085.829,7.689,1.578,9.6,1.976a.578.578,0,0,1,.157,1.075,17.226,17.226,0,0,1-12.122,1.768s-1.928-.175-2.8,3.505-7.274,15.863-7.274,15.863-1.753,4.557-8.063-2.8S593.5,379.547,593.5,379.547Z" transform="translate(327.431 488.092)" fill="#a1616a"/>
    <path id="Path_122" data-name="Path 122" d="M370.425,257.169l-.755,2.488-.747,2.461-1.478,4.867-7.011,1.315-2.285-1.457-2.8-1.785-2.413-1.665-3.547-2.454L346.5,254.89s.8-.141,3.284-.593l3.464-.634a4.336,4.336,0,0,0,3.573-4.031,12.459,12.459,0,0,0-.243-4.382h8.851a7.013,7.013,0,0,1,.835,4.063,10.3,10.3,0,0,1-.4,2.247c-.778,2.694.979,3.593,2.171,3.885a4.939,4.939,0,0,0,.984.146Z" transform="translate(552.784 598.2)" fill="#a1616a"/>
    <path id="Path_123" data-name="Path 123" d="M471.157,249.331a8.331,8.331,0,0,1-9.444.321,12.454,12.454,0,0,0-.243-4.382h8.851A6.966,6.966,0,0,1,471.157,249.331Z" transform="translate(447.89 598.182)" opacity="0.1"/>
    <circle id="Ellipse_22" data-name="Ellipse 22" cx="8.326" cy="8.326" r="8.326" transform="translate(905.769 832.233)" fill="#a1616a"/>
    <path id="Path_124" data-name="Path 124" d="M370.425,351.352l-.755,2.488-.747,2.461-1.478,4.867-7.011,1.315-2.285-1.457-2.8-1.785-2.413-1.665-3.547-2.454-2.892-6.047s.8-.141,3.284-.593c1.753,4.877,3.97,6.693,5.971,7.282a7.361,7.361,0,0,0,3.206.131,8.276,8.276,0,0,1,3.438.175c2.69.749,4.107-.684,4.851-2.5a12.7,12.7,0,0,0,.789-3.944,4.945,4.945,0,0,0,.984.146Z" transform="translate(552.784 504.017)" opacity="0.1"/>
    <path id="Path_125" data-name="Path 125" d="M303.832,394.946s3.33-15.161,1.753-19.456a16.72,16.72,0,0,1-.794-4.494,55.756,55.756,0,0,1,.268-8.652c.075-.146.146-.292.215-.438q.263-.561.463-1.1a9.087,9.087,0,0,0-1.643-9.7,5.91,5.91,0,0,0-.614-.59l6.7-.745c1.762,5.058,4.023,6.923,6.056,7.521a7.361,7.361,0,0,0,3.206.131,8.275,8.275,0,0,1,3.438.175c2.691.748,4.107-.685,4.851-2.5a14.2,14.2,0,0,0,.81-5.108l3.856,1.139s-.34,2.112-.648,4.887c-.073.651-.144,1.338-.208,2.044a41.716,41.716,0,0,0-.109,8.405,17.007,17.007,0,0,1-.33,6.545,8.113,8.113,0,0,1-1.073,2.4c-.56.864-1.248,2.818.613,6.047,2.629,4.557,5.346,13.5,5.346,13.5Z" transform="translate(592.034 502.84)" fill="#22bfbf"/>
    <path id="Path_126" data-name="Path 126" d="M593.091,365.75s3.184,5-.994,9.29-2.512-1.753-2.512-1.753l1.052-7.011Z" transform="translate(331.301 488.261)" fill="#22bfbf"/>
    <path id="Path_127" data-name="Path 127" d="M310.48,363.3a4.318,4.318,0,0,1,.728-.163c1.139.543,1.77,2.052,2.113,3.626a8.156,8.156,0,0,1-1.2,6.245A9.092,9.092,0,0,0,310.48,363.3Z" transform="translate(585.647 490.642)" opacity="0.1"/>
    <path id="Path_128" data-name="Path 128" d="M344.435,412.243a33.732,33.732,0,0,1-4.315-.1,3.817,3.817,0,0,1-1.052,3.453,2.389,2.389,0,0,1-2.161.756c-4.044-.7-10.192,2.98-10.192,2.98a56.931,56.931,0,0,1-9.036,5.847,55.758,55.758,0,0,1,.268-8.652c.075-.146.146-.292.215-.438,1.874-.351,8.681-1.735,10.039-3.768a3.212,3.212,0,0,1,.929-.848,16.969,16.969,0,0,1,4.779-1.768,19.086,19.086,0,0,1,6.716-.426,18.519,18.519,0,0,1,2.853.556c.408.113.8.235,1.165.362.992.351,1.744.742,1.874,1.159C346.694,411.922,345.694,412.16,344.435,412.243Z" transform="translate(579.146 448.656)" opacity="0.1"/>
    <path id="Path_129" data-name="Path 129" d="M435.955,405.237c-1.349-.023-2.529-.129-2.529-.129a3.817,3.817,0,0,1-1.052,3.453,2.389,2.389,0,0,1-2.161.756,11.049,11.049,0,0,0-5.028.643l-2.8-1.785-2.413-1.665a4.256,4.256,0,0,0,1.536-1.227c.778-1.167,3.33-2.036,5.708-2.616a18.936,18.936,0,0,1,9.487.109l.082.022c1.524.425,2.861.952,3.039,1.521C440.079,405.139,437.851,405.27,435.955,405.237Z" transform="translate(485.753 455.081)" opacity="0.1"/>
    <path id="Path_130" data-name="Path 130" d="M207.991,358.12s-4.584.466-5.921,6.409a6.156,6.156,0,0,1-1.218,2.524c-1.329,1.641-3.526,4.838-3.4,7.906.175,4.382.175,6.135,5.959,4.908s13.584-7.537,13.584-7.537,6.149-3.675,10.192-2.98a2.391,2.391,0,0,0,2.161-.756,3.806,3.806,0,0,0,1.052-3.453s6.836.613,6.4-.789c-.175-.57-1.515-1.1-3.039-1.521a18.95,18.95,0,0,0-9.569-.131c-2.382.581-4.93,1.45-5.708,2.616-1.577,2.366-10.517,3.856-10.517,3.856l.263-.3a8.188,8.188,0,0,0,1.879-7.13C209.762,360.172,209.134,358.663,207.991,358.12Z" transform="translate(688.777 495.222)" fill="#a1616a"/>
    <path id="Path_131" data-name="Path 131" d="M303.962,355.925s-.263,10.6,3.681,9.027.876-9.027.876-9.027l-1.753-.175Z" transform="translate(591.597 497.384)" fill="#22bfbf"/>
    <path id="Path_132" data-name="Path 132" d="M413.864,110.554a38.76,38.76,0,0,0,7.653-1.645,2.573,2.573,0,0,0,1.634-1.083c.077-.155.135-.339.286-.424a.607.607,0,0,1,.433-.017,17.5,17.5,0,0,1,2.4,1.067,2.327,2.327,0,0,0,2.477-.211c.739-.729.494-1.982.008-2.9-1.806-3.407-6.038-4.963-9.886-4.681a4.268,4.268,0,0,0-1.578.351,5.662,5.662,0,0,0-2.153,2.595C414.054,105.543,408.313,111.169,413.864,110.554Z" transform="translate(493.498 730.147)" opacity="0.1"/>
    <path id="Path_133" data-name="Path 133" d="M413.864,107.554a38.759,38.759,0,0,0,7.653-1.645,2.573,2.573,0,0,0,1.634-1.083c.077-.155.135-.339.286-.424a.607.607,0,0,1,.433-.017,17.5,17.5,0,0,1,2.4,1.067,2.327,2.327,0,0,0,2.477-.211c.739-.729.494-1.982.008-2.9-1.806-3.407-6.038-4.963-9.886-4.681a4.268,4.268,0,0,0-1.578.351,5.662,5.662,0,0,0-2.153,2.595C414.054,102.543,408.313,108.169,413.864,107.554Z" transform="translate(493.498 732.884)" fill="#40243e"/>
    <path id="Path_134" data-name="Path 134" d="M889.591,316.75H871.8a.811.811,0,0,0-.811.811V327.99a.811.811,0,0,0,.811.811h17.791a.811.811,0,0,0,.811-.811V317.561A.811.811,0,0,0,889.591,316.75Z" transform="translate(74.259 532.966)" fill="none"/>
    <rect id="Rectangle_111" data-name="Rectangle 111" width="18.959" height="11.767" transform="translate(945.475 849.858)" fill="#22bfbf"/>
    <rect id="Rectangle_112" data-name="Rectangle 112" width="18.959" height="2.158" transform="translate(945.475 851.918)" fill="#6c63ff"/>
    <rect id="Rectangle_113" data-name="Rectangle 113" width="18.959" height="2.158" transform="translate(945.475 851.918)" opacity="0.84"/>
    <rect id="Rectangle_114" data-name="Rectangle 114" width="15.363" height="1.046" transform="translate(947.272 855.677)" fill="#fff"/>
    <circle id="Ellipse_23" data-name="Ellipse 23" cx="1.504" cy="1.504" r="1.504" transform="translate(947.044 857.834)" fill="#6c63ff"/>
    <circle id="Ellipse_24" data-name="Ellipse 24" cx="1.504" cy="1.504" r="1.504" transform="translate(947.044 857.834)" opacity="0.82"/>
    <path id="Path_135" data-name="Path 135" d="M284.542,484.75s-1.665.884-1.941,1.965-.6,1.278-.6,1.278" transform="translate(611.632 379.69)" opacity="0.05"/>
    <path id="Path_136" data-name="Path 136" d="M773.351,610.75s-.789,2.717,0,3.068" transform="translate(163.661 264.732)" opacity="0.05"/>
    <path id="Path_137" data-name="Path 137" d="M328,629.328s6.836,1.49,11.919-1.578h2.191s6.573,3.33,9.728,2.366" transform="translate(569.663 249.222)" opacity="0.05"/>
    <rect id="Rectangle_115" data-name="Rectangle 115" width="3.314" height="6.457" transform="translate(944.862 876.317) rotate(-66.42)" fill="#8ed16f"/>
    <ellipse id="Ellipse_25" data-name="Ellipse 25" cx="0.68" cy="1.359" rx="0.68" ry="1.359" transform="translate(946.949 876.208) rotate(-66.42)" fill="#8ed16f"/>
    <ellipse id="Ellipse_26" data-name="Ellipse 26" cx="0.68" cy="1.359" rx="0.68" ry="1.359" transform="translate(946.949 876.208) rotate(-66.42)" opacity="0.1"/>
    <rect id="Rectangle_116" data-name="Rectangle 116" width="3.314" height="6.457" transform="translate(953.541 865.497) rotate(-66.42)" fill="#8ed16f"/>
    <ellipse id="Ellipse_27" data-name="Ellipse 27" cx="0.68" cy="1.359" rx="0.68" ry="1.359" transform="translate(955.627 865.389) rotate(-66.42)" fill="#8ed16f"/>
    <ellipse id="Ellipse_28" data-name="Ellipse 28" cx="0.68" cy="1.359" rx="0.68" ry="1.359" transform="translate(955.627 865.389) rotate(-66.42)" opacity="0.1"/>
    <rect id="Rectangle_117" data-name="Rectangle 117" width="3.314" height="6.457" transform="translate(962.127 874.089) rotate(-11.09)" fill="#8ed16f"/>
    <ellipse id="Ellipse_29" data-name="Ellipse 29" cx="0.68" cy="1.359" rx="0.68" ry="1.359" transform="translate(963.404 875.743) rotate(-11.09)" fill="#8ed16f"/>
    <ellipse id="Ellipse_30" data-name="Ellipse 30" cx="0.68" cy="1.359" rx="0.68" ry="1.359" transform="translate(963.404 875.743) rotate(-11.09)" opacity="0.1"/>
    <rect id="Rectangle_118" data-name="Rectangle 118" width="3.314" height="6.457" transform="translate(952.355 891.183) rotate(-66.42)" fill="#8ed16f"/>
    <ellipse id="Ellipse_31" data-name="Ellipse 31" cx="0.68" cy="1.359" rx="0.68" ry="1.359" transform="translate(954.442 891.075) rotate(-66.42)" fill="#8ed16f"/>
    <ellipse id="Ellipse_32" data-name="Ellipse 32" cx="0.68" cy="1.359" rx="0.68" ry="1.359" transform="translate(954.442 891.075) rotate(-66.42)" opacity="0.1"/>
    <rect id="Rectangle_119" data-name="Rectangle 119" width="3.314" height="6.457" transform="translate(937.732 888.313) rotate(-66.42)" fill="#8ed16f"/>
    <ellipse id="Ellipse_33" data-name="Ellipse 33" cx="0.68" cy="1.359" rx="0.68" ry="1.359" transform="translate(939.819 888.205) rotate(-66.42)" fill="#8ed16f"/>
    <ellipse id="Ellipse_34" data-name="Ellipse 34" cx="0.68" cy="1.359" rx="0.68" ry="1.359" transform="translate(939.819 888.205) rotate(-66.42)" opacity="0.1"/>
  </g>
</svg>
