<svg xmlns="http://www.w3.org/2000/svg" width="92.613" height="84.722" viewBox="0 0 92.613 84.722">
  <g id="Group_141" data-name="Group 141" transform="translate(-291.267 -825)">
    <path id="Path_138" data-name="Path 138" d="M243.433,816.075c0,1.479-9.15,2.677-20.457,2.685h-.1a120.684,120.684,0,0,1-14.224-.745l-.466-.062c-.628-.083-1.215-.172-1.755-.265-2.583-.45-4.114-1.008-4.114-1.613,0-.49,1-.947,2.751-1.343.924-.209,2.056-.4,3.36-.567q.36-.048.738-.091a123.222,123.222,0,0,1,13.71-.684c1.024,0,2.031.01,3.014.029C235.813,813.609,243.433,814.725,243.433,816.075Z" transform="translate(113.379 90.962)" fill="#ababab"/>
    <g id="Group_140" data-name="Group 140" transform="translate(291.267 825)" opacity="0.4">
      <rect id="Rectangle_121" data-name="Rectangle 121" width="92.613" height="47.494" fill="#22bfbf"/>
      <g id="Group_139" data-name="Group 139" transform="translate(8.073 7.669)">
        <g id="Group_137" data-name="Group 137">
          <rect id="Rectangle_146" data-name="Rectangle 146" width="21.572" height="14.396" fill="#fff"/>
          <rect id="Rectangle_147" data-name="Rectangle 147" width="21.572" height="14.396" transform="translate(27.448)" fill="#fff"/>
          <rect id="Rectangle_148" data-name="Rectangle 148" width="21.572" height="14.396" transform="translate(54.895)" fill="#fff"/>
        </g>
        <g id="Group_138" data-name="Group 138" transform="translate(0 18.164)">
          <rect id="Rectangle_146-2" data-name="Rectangle 146" width="21.572" height="14.396" fill="#fff"/>
          <rect id="Rectangle_147-2" data-name="Rectangle 147" width="21.572" height="14.396" transform="translate(27.448)" fill="#fff"/>
          <rect id="Rectangle_148-2" data-name="Rectangle 148" width="21.572" height="14.396" transform="translate(54.895)" fill="#fff"/>
        </g>
      </g>
    </g>
    <g id="Group_136" data-name="Group 136" transform="translate(335.166 837.558)">
      <path id="Path_46" data-name="Path 46" d="M630.218,357.778a3.238,3.238,0,1,0-.53,4.933l2.341,2.435a.158.158,0,0,0,.223,0l.583-.561a.158.158,0,0,0,0-.223l-2.341-2.435A3.239,3.239,0,0,0,630.218,357.778Zm-.729,3.913a2.316,2.316,0,1,1,.064-3.275A2.316,2.316,0,0,1,629.489,361.692Z" transform="translate(-624.65 -356.784)" fill="#2b2b2b"/>
      <path id="Path_48" data-name="Path 48" d="M704.921,419.226a1.946,1.946,0,0,0-1.678.867c-.111.173.2.326.314.154a1.6,1.6,0,0,1,1.392-.7,1.773,1.773,0,0,1,1.447.842c.111.182.4.017.291-.165A2.149,2.149,0,0,0,704.921,419.226Z" transform="translate(-701.587 -417.928)" fill="#2b2b2b"/>
    </g>
    <circle id="Ellipse_36" data-name="Ellipse 36" cx="3.366" cy="3.366" r="3.366" transform="translate(334.305 855.243)" fill="#ff6584"/>
    <rect id="Rectangle_144" data-name="Rectangle 144" width="0.243" height="9.607" transform="matrix(1, -0.002, 0.002, 1, 335.213, 860.098)" fill="#3f3d56"/>
    <path id="Path_159" data-name="Path 159" d="M385.456,311.954a10.423,10.423,0,0,1-2.337,6.1,8.974,8.974,0,0,1-.079-12.165A10.423,10.423,0,0,1,385.456,311.954Z" transform="translate(-47.752 549.364)" fill="#6c63ff"/>
    <path id="Path_160" data-name="Path 160" d="M385.456,311.954a10.423,10.423,0,0,1-2.337,6.1,8.974,8.974,0,0,1-.079-12.165A10.423,10.423,0,0,1,385.456,311.954Z" transform="translate(-47.752 549.364)" opacity="0.1"/>
    <rect id="Rectangle_145" data-name="Rectangle 145" width="0.243" height="9.607" transform="matrix(1, -0.002, 0.002, 1, 332.052, 860.104)" fill="#3f3d56"/>
    <path id="Path_161" data-name="Path 161" d="M352.776,312.015a10.423,10.423,0,0,1-2.337,6.1,8.974,8.974,0,0,1-.079-12.165A10.423,10.423,0,0,1,352.776,312.015Z" transform="translate(-18.234 549.309)" fill="#6c63ff"/>
    <path id="Path_172" data-name="Path 172" d="M340.57,527.233l-1.519.169a20.44,20.44,0,0,0,0,7.09c.675,4.052,1.519,8.1,1.519,8.1s.675,13.167,1.013,13.336,3.376,1.182,3.545.169.169-24.14.169-24.14L347.66,543.1s.338,14.011,1.013,14.011,2.87-.169,2.87-1.35.507-16.712.507-16.712-.169-11.479-.844-11.817S340.57,527.233,340.57,527.233Z" transform="translate(-9.858 349.568)" fill="#2f2e41"/>
    <path id="Path_173" data-name="Path 173" d="M349.867,819.318a6.715,6.715,0,0,0-1.857,0,1.352,1.352,0,0,0,0,2.026,10.22,10.22,0,0,0,3.714,1.688,3.492,3.492,0,0,0,1.35-.338l-.338-2.87Z" transform="translate(-17.804 85.675)" fill="#2f2e41"/>
    <path id="Path_174" data-name="Path 174" d="M441.307,817.388l.169,2.363s2.195.338,2.363,0,1.857-1.182,2.026-1.35.338-2.026-.675-2.194-1.35.338-1.35.338Z" transform="translate(-102.492 88.449)" fill="#2f2e41"/>
    <path id="Path_175" data-name="Path 175" d="M463.149,197.122s3.691-2.373,3.605-4-2.31-6.772-2.31-6.772-1.741-3.619-2.433-2.14.909,3.053.909,3.053l1.034,5.043-2.809,2.68Z" transform="translate(-120.412 659.592)" fill="#a0616a"/>
    <circle id="Ellipse_44" data-name="Ellipse 44" cx="3.039" cy="3.039" r="3.039" transform="translate(330.543 847.26)" fill="#a0616a"/>
    <path id="Path_176" data-name="Path 176" d="M371.515,263.929l.506,3.207,3.714-.675s-.169-3.207-.169-3.545S371.515,263.929,371.515,263.929Z" transform="translate(-39.453 588.226)" fill="#a0616a"/>
    <path id="Path_177" data-name="Path 177" d="M327.218,300.095s4.22-1.013,4.727-.675a14.467,14.467,0,0,0,3.039.675l2.87,4.389-.844,5.571s-.169,8.947.169,10.466,2.195,1.688-1.688,2.026-4.558-.169-7.259.506-4.9-.338-4.22-1.013,1.857-11.479.506-12.492-1.857-6.246-1.857-6.246S327.218,300.939,327.218,300.095Z" transform="translate(4.676 555.268)" fill="#3f3d56"/>
    <path id="Path_178" data-name="Path 178" d="M444.8,298.093l.506-.506,1.013-1.013s3.292,1.435,3.123,1.941-1.266,3.461-1.266,3.461l-1.519.506Z" transform="translate(-105.645 557.776)" fill="#3f3d56"/>
    <path id="Path_179" data-name="Path 179" d="M353.021,209.321l-.031-.243a1.914,1.914,0,0,0-.608.1,1,1,0,0,1,.038-.437,1.945,1.945,0,0,0-.563.245l-.123-.444-1.688.832a3.559,3.559,0,0,0-1.591,1.206,2.561,2.561,0,0,0-.055,2.182,17.725,17.725,0,0,0,1.054,1.995,4.984,4.984,0,0,0,.479.815,2.277,2.277,0,0,0,2.775.475,1.606,1.606,0,0,0,.769-.791,5.143,5.143,0,0,0,.154-.655c.111-.454.24-1.39.609-1.678.162-.126.484.292.618.137a1.438,1.438,0,0,0,.058-1.5,10.937,10.937,0,0,0-.72-1.4A6.655,6.655,0,0,0,353.021,209.321Z" transform="translate(-18.379 637.296)" fill="#2f2e41"/>
    <path id="Path_180" data-name="Path 180" d="M261.237,382.069s-4.051,3.883-3.545,5.908,4.558,7.934,4.558,7.934,3.883,2.026,4.389,0-2.7-1.519-2.7-1.519l-2.532-6.077,2.87-4.052Z" transform="translate(63.397 480.552)" fill="#a0616a"/>
    <path id="Path_181" data-name="Path 181" d="M291.589,340.531l-2.026-.338s-1.519,1.688-2.026,2.363-1.519,2.363-1.519,2.363l3.545,2.532,2.7-2.87Z" transform="translate(37.772 518.377)" fill="#3f3d56"/>
  </g>
</svg>
